# xmcd CD database file
#
# Track frame offsets:
#	150
#	23103
#	47325
#	71703
#	89383
#	108908
#	128848
#	147688
#	169455
#	191075
#	210260
#	232248
#
# Disc length: 3432 seconds
#
# Revision: 0
# Processed by: cddbd v1.4PL0 Copyright (c) Steve Scherf et al.
# Submitted via: CDex 1.50
#
DISCID=af0d660c
DTITLE=Quoc Tuan - Chieu Nay Khong Co Em
DYEAR=1991
DGENRE=New Age
TTITLE0=Nguoi Yeu Co Don
TTITLE1=Pho Vang Em Roi
TTITLE2=Bao Gio Biet Tuong Tu
TTITLE3=Chieu Nay Khong Co Em
TTITLE4=Anh Van Khong Doi Thay
TTITLE5=Cay Dan Bo Quen
TTITLE6=Bay Di Canh Chim Bien
TTITLE7=Con Gio Thoang
TTITLE8=Tuyet Roi
TTITLE9=Diep Khuc Mua Xuan
TTITLE10=Kiep Dam Me
TTITLE11=Tinh Lo
EXTD=YEAR: 1991
EXTT0=
EXTT1=
EXTT2=
EXTT3=
EXTT4=
EXTT5=
EXTT6=
EXTT7=
EXTT8=
EXTT9=
EXTT10=
EXTT11=
PLAYORDER=
